<?xml version="1.0" standalone="no"?>
<!DOCTYPE svg PUBLIC "-//W3C//DTD SVG 1.1//EN" "http://www.w3.org/Graphics/SVG/1.1/DTD/svg11.dtd">
<svg viewBox="0 0 1024 1024" style="" version="1.1" xmlns="http://www.w3.org/2000/svg" p-id="3222" xmlns:xlink="http://www.w3.org/1999/xlink" width="128" height="128">
<defs>
<style type="text/css">
</style>
</defs>
<path d="M138.5 387.5c11.5 0 20.8-9.3 20.8-20.8V221.5c0-45.8 37.2-83 83-83h166c11.5 0 20.8-9.3 20.8-20.8s-9.3-20.8-20.8-20.8h-166c-68.5 0-124.5 56-124.5 124.5v145.3c0 11.5 9.2 20.8 20.7 20.8zM615.8 138.5h166c45.8 0 83 37.2 83 83v145.3c0 11.5 9.3 20.8 20.8 20.8s20.8-9.3 20.8-20.8V221.5c0-68.5-56-124.5-124.5-124.5h-166c-11.5 0-20.8 9.3-20.8 20.8-0.1 11.4 9.2 20.7 20.7 20.7zM408.3 885.5h-166c-45.8 0-83-37.2-83-83V657.3c0-11.5-9.3-20.8-20.8-20.8s-20.8 9.3-20.8 20.8v145.3c0 68.5 56 124.5 124.5 124.5h166c11.5 0 20.8-9.3 20.8-20.8s-9.3-20.8-20.7-20.8zM885.5 636.5c-11.5 0-20.8 9.3-20.8 20.8v145.3c0 45.8-37.2 83-83 83h-166c-11.5 0-20.8 9.3-20.8 20.8s9.3 20.8 20.8 20.8h166c68.5 0 124.5-56 124.5-124.5V657.3c0.1-11.5-9.2-20.8-20.7-20.8zM906.3 491.3H117.8c-11.4 0-20.8 9.3-20.8 20.8s9.3 20.8 20.8 20.8h788.5c11.4 0 20.8-9.3 20.8-20.8s-9.4-20.8-20.8-20.8z" p-id="3223" fill="#AD9A87">
</path>
</svg>